Patient4_TMGait_0pt5_02_right_44_EMG.mot
version=1
nRows=33
nColumns=33
inDegrees=no
endheader
time	1LAddLong	2LGlutMax	3LGlutMed	4LIliopsoas	5LSemiMemb	6LBicFemLong	7LRecFem	8LVastMed	9LVastLat	10LGasMed	11LTibAnt	12lTibPost	13LPeroneusLong	14LSol	15LExtDigLong	16LFlexDigLong	17RAddLong	18RGlutMax	19RGlutMed	20RIliopsoas	21RSemiMemb	22RBicFemLong	23RRecFem	24RVastMed	25RVastLat	26RGasMed	27RTibAnt	28RTibPost	29RPeroneusLong	30RSol	31RExtDigLong	32RFlexDigLong
58.765	0.014343	0.020142	-0.099335	0.005341	0.018311	0.035248	0.1474	0.011139	0.018311	-1.2738	-0.014496	0.22217	-0.034332	0.87875	-0.027466	0.46402	0	-0.10132	-0.074615	-0.007782	0.031433	0.057678	0.013885	-0.07309	0.006866	0	0.2533	-0.008087	0.058594	0.010986	0.001526	-0.01358
58.766	0.009613	0.027008	-0.14252	-0.01709	0.057526	-0.087585	0.18387	0.006714	-0.001221	-0.93018	-0.004425	-0.53497	-0.15381	-0.11353	-0.068665	-0.046234	0	-0.085449	-0.079803	0.027161	0.026093	0.034332	-0.042572	-0.074615	0.000916	0.005035	0.076752	-0.007782	0.064697	0.028381	-0.001373	-0.011902
58.767	0.003204	0.034637	-0.18585	-0.013733	0.045929	-0.12985	0.12329	0.011292	-0.013733	-0.6868	0.005798	-0.1355	-0.11276	-1.145	-0.15106	-0.002441	-0.00824	-0.072021	-0.28046	0.021973	0.029907	0.022278	-0.011597	-0.045929	0.013733	0.00351	-0.22461	-0.008545	0.050049	0.04364	-0.001068	-0.011902
58.768	0.008087	0.005493	-0.24979	0.005341	0.023804	-0.10819	0.084381	0.01358	0.002441	-0.52246	0.000153	0.11475	-0.008087	-0.95017	-0.095062	-0.14877	-0.016785	-0.040283	-0.23071	0.040436	-0.028839	0.004578	-0.024261	-0.049591	0.009003	0.016785	-0.32394	-0.005646	-0.10422	-0.031433	-0.001068	-0.010223
58.769	0.007782	-0.038757	-0.14206	-0.018616	0.011139	-0.057373	0.095825	0.02243	0.03006	-0.039978	-0.003815	0.071564	0.20721	-0.18539	-0.037842	-0.16968	-0.013428	-0.12497	-0.24216	-0.006256	-0.029144	-0.006256	-0.032806	-0.070648	-0.003052	0.012054	-0.20065	-0.007172	-0.27466	-0.062714	-0.001678	-0.010376
58.77	0.003662	-0.003052	0.10071	-0.023499	0.010376	-0.031891	0.091095	0.011902	0.055847	0.4628	-0.007935	0.01297	0.20874	-0.30914	0.000763	-0.048218	-0.001221	-0.12436	-0.21194	0.014038	-0.012512	-0.02533	-0.037537	-0.089111	0.003967	0.012665	-0.073547	-0.003815	-0.066681	-0.087128	0.001526	-0.001831
58.771	-0.002594	-0.029449	0.19073	-0.020752	0.005341	0.001984	0.042877	0.009308	0.063782	0.53894	-0.009308	-0.032043	0.16663	-0.66498	0.027161	0.037231	0.00885	-0.085449	-0.10819	-0.010834	0.009918	-0.031433	-0.016937	-0.12131	0.013428	0.014648	0.26977	-0.005188	0.052338	-0.17334	0	-0.002594
58.772	-0.002136	-0.040894	0.090637	0.006409	0.011749	-0.001831	0.007935	0.001678	0.077515	0.27161	-0.002441	-0.020599	0.13138	-0.68008	-0.023804	-0.077972	0.025024	-0.13046	0	-0.04364	0.022278	-0.06012	-0.022736	-0.14954	0.023956	0.003662	0.28671	-0.003967	-0.024414	-0.15274	0.001526	0.000458
58.773	0.020447	-0.058136	0.076447	0.027771	0.005188	-0.014801	-0.016632	0.007019	0.13733	0.12207	0.004272	-0.006866	0.038757	-1.124	-0.019379	-0.21454	0.045929	-0.092163	-0.10468	-0.012207	0.040894	-0.077515	0.001068	-0.13321	0.007782	0.003815	-0.036621	-0.003662	-0.13534	-0.092316	0.002594	0.001526
58.774	0.004578	-0.043488	0.03067	0.021057	0.007019	0.03067	0.028534	0.00946	0.061646	0.10513	0.000153	0.001373	0.10193	-0.51895	-0.026093	-0.2179	0.039673	-0.073547	0.093536	-0.01358	-0.043793	0.001831	-0.004883	-0.15549	0.006866	-0.00412	-0.27008	-0.004425	-0.16663	-0.089874	0.000153	0.002747
58.775	0.001373	-0.022125	0.007629	-0.001831	-0.000305	0.056305	0.042267	0.011444	-0.005188	0.018616	0.002747	0.005188	0.10086	0.18723	-0.003204	-0.16495	0.007477	-0.088654	-0.037384	0.014954	-0.03952	0.011749	0.002441	-0.17944	0.014343	0.000458	-0.34851	-0.005035	-0.054626	-0.093842	0.002289	-0.007019
58.776	0.00061	-0.015717	0.016632	-0.006409	0.009918	0.033875	0.016785	0.008545	0.017548	-0.088501	-0.003662	-0.019684	0.065765	0.55374	0.015717	0.033722	-0.009613	-0.059509	0.016327	0.039063	-0.049438	0.061035	-0.058441	-0.14572	0.027008	-0.005493	-0.23422	-0.006256	0.026855	-0.11551	0.002747	-0.003052
58.777	0.007782	-0.013428	0.044556	-0.012512	0.006561	0.006714	-0.00885	0.009308	0.062256	-0.11932	-0.00351	-0.036926	0.073242	0.42084	0.027771	0.085907	-0.019531	-0.11734	-0.075836	0.029144	-0.099945	0.099487	-0.025177	-0.12482	0.021973	0.001831	-0.16113	-0.000916	0.083466	-0.12604	0.002899	-0.010529
58.778	0.011139	-0.040436	0	0.000458	-0.002441	-0.014038	0.019684	0.016174	0.083466	-0.085144	-0.014801	-0.026855	0.07782	0.069427	0.047455	-0.019684	-0.029602	-0.06897	-0.22842	0.005646	-0.060883	0.033569	-0.03067	-0.067444	0.023041	-0.001984	-0.11688	-0.002747	0.10269	-0.076904	-0.00061	-0.002899
58.779	0.007019	-0.027924	-0.027161	0.000153	0.000763	-0.023499	0.008392	0.018768	0.018616	-0.045929	-0.012207	-0.023499	0.05127	0.22461	0.018768	-0.050507	-0.023193	-0.08255	-0.068207	-0.016632	0.00885	0.06485	-0.041504	-0.031586	0.034027	-0.000916	-0.012665	-0.004578	0.052185	-0.085449	0.001373	-0.010223
58.78	0.006866	-0.021515	-0.046539	-0.015106	0.009766	0.003052	0.031891	0.00885	-0.071564	-0.027924	-0.023346	-0.028992	0.01709	0.12695	0.023956	-0.035858	-0.038757	-0.062256	-0.12161	-0.01297	0.013885	0.078583	-0.02182	-0.052032	0.01236	-0.004883	-0.046692	0.000305	-0.025177	-0.11063	0.001984	-0.013123
58.781	0.035248	-0.047607	-0.039673	-0.011292	0.007019	-0.010071	0.065308	0.005493	-0.075378	-0.010986	-0.005798	-0.025635	0.033875	-0.17258	0.030518	-0.03006	-0.037689	-0.098114	-0.22247	0.014191	0.004578	0.021362	-0.025787	-0.052032	-0.00412	-0.000916	-0.11856	-0.003662	-0.080414	-0.1471	0.003967	-0.011444
58.782	-0.047913	-0.028687	-0.015564	-0.002747	0.00351	-0.005798	0.076447	0.002594	0.022278	-0.02594	0.000763	-0.033112	0.041199	0.017395	0.021973	-0.012665	-0.020447	-0.11597	-0.37796	0.026398	-0.022125	-0.054321	-0.016174	-0.064697	-0.005951	0.001984	0.14771	0.000305	-0.17227	-0.09079	0	-0.019531
58.783	0.016479	0.014648	-0.028992	0.005646	0.00824	0.003052	0.036011	0.000153	0.019989	-0.011292	-0.004883	-0.025482	0.022278	0.057526	0.02655	-0.011749	0.005646	-0.080414	0.025635	-0.023651	0.051575	-0.045929	-0.025482	-0.098877	0.003204	-0.003662	0.57709	-0.00412	-0.15488	-0.086212	0.002289	-0.013275
58.784	0.005646	0.024414	0.10925	0.003204	0.015106	-0.000305	0.00885	-0.00351	0.010071	-0.023041	-0.005646	-0.023346	0.017242	0.007172	0.050354	-0.019073	0.014191	-0.026093	-0.082703	-0.046997	0.093842	-0.056915	0.012054	-0.091705	-0.00061	-0.007172	0.57053	-0.003052	-0.023956	-0.11078	0.002289	-0.016174
58.785	0.001373	0.008545	0.13473	-0.015259	0.005341	0.001068	0.030823	0.002747	0.006409	0	-0.005798	-0.027313	0.014191	0.08316	0.050507	-0.000763	-0.00061	-0.026703	-0.22766	0.000916	0.096283	-0.050049	-0.024261	-0.078735	0.010223	-0.007935	0.66834	-0.000153	0.06073	-0.063782	-0.00061	-0.019989
58.786	0.005035	-0.039368	0.090332	-0.0177	0.003967	0.019073	0.022278	0.010376	0.014801	-0.00946	0.016479	-0.019379	0.02594	-0.021362	0.036926	-0.005035	-0.007324	-0.094757	-0.14114	0.042419	0.073395	-0.018768	0.002594	-0.092468	-0.00061	-0.008087	0.82855	-0.003967	0.048828	-0.040894	-0.000458	-0.021515
58.787	0.004578	-0.010529	0.1355	-0.012512	0.00885	0.009003	0.032501	-0.001373	0.023804	0.005035	0.005951	-0.023041	0.031738	-0.06897	0.025635	-0.005493	-0.028381	-0.070953	0.20447	0.039063	-0.041504	0.055237	-0.011139	-0.084381	-0.010529	-0.010529	0.39917	-0.003204	0.004272	0.052948	0.00061	-0.007477
58.788	0.008392	-0.019684	0.076294	0.013885	0.006866	-0.005035	0.032349	-0.000458	0.034943	0.015411	0.005798	-0.019073	0.046844	-0.00473	0.004425	-0.00473	-0.004883	-0.10239	0.045166	0.006714	-0.057983	0.10147	-0.00946	-0.081024	-0.000763	-0.006409	-0.43778	-0.007477	0.049133	0.13382	0.003052	-0.013123
58.789	0.005188	-0.056152	-0.010834	0.012665	0.008545	0.020294	0.029602	0.006256	0.033569	0.015411	0.010071	-0.028534	0.057068	0.004883	0.025482	0.00473	0.003052	-0.11154	-0.30563	0.074463	-0.079346	0.121	0.000153	-0.088348	-0.009613	-0.009155	-0.6749	-0.004578	0.055084	0.15701	-0.00061	-0.012512
58.79	0.006256	-0.044403	-0.075684	-0.001221	-0.002747	0	0.027161	0.001526	0.022125	0.020142	0.012665	-0.024261	0.06012	0.001373	0.029907	0.002136	-0.009308	-0.015106	-0.44647	0.074463	-0.023499	0.14893	-0.018463	-0.10757	0.000916	-0.00824	-0.40909	-0.000458	0.042725	0.070496	-0.001526	-0.010376
58.791	0.00412	-0.003357	-0.007477	-0.001984	0.008087	-0.008545	0.041351	0.008392	0.019531	0.028076	0.022278	-0.026245	0.028687	0.000763	0.011444	-0.001678	-0.004425	0.018005	0.12024	-0.058441	-0.007172	0.083771	-0.026093	-0.085297	0.000305	-0.009003	-0.43701	-0.00473	0.033264	-0.018005	-0.001221	-0.006866
58.792	0.004578	-0.041351	-0.075073	0.012207	0.011139	0.016327	0.031891	0.008087	0.021057	0.035095	0.026703	-0.00824	0.023651	-0.010376	0.014954	-0.001984	-0.007477	0.007172	0.62775	-0.15182	0.004425	0.048218	-0.055084	-0.044556	0.001984	-0.007935	-0.53451	-0.002899	0.041351	-0.078583	0.000305	-0.012054
58.793	0.003815	-0.061493	-0.11887	0.00473	0.010834	0.042419	0.033875	0.000763	0.023193	0.039978	0.00824	-0.019531	0.015717	-0.031281	-0.0177	0.000153	-0.007172	0.00351	0.16785	-0.063324	0.029907	0.016479	-0.063019	-0.055237	0.013733	-0.000916	-0.40253	-0.003967	-0.013275	-0.080261	-0.001221	-0.011749
58.794	0.007019	-0.04837	0.071564	0.005798	0.012665	0.022736	0.020905	0.009613	0.020905	0.051727	-0.014496	-0.016632	0.005798	-0.04303	-0.034485	-0.001831	-0.005493	0.030518	-0.26627	0.011749	0.039063	-0.066833	-0.046844	-0.084381	0.011139	0.005341	-0.31921	-0.004578	-0.020905	-0.11139	0.002441	-0.009155
58.795	0.007172	-0.020752	0.12802	0.000458	0.015411	0.006714	0.026398	0.011139	0.026398	0.024567	-0.040894	-0.019531	-0.019379	-0.058594	-0.028992	-0.00061	0.011292	0.034637	-0.39444	0.020599	0.047607	-0.13123	-0.046387	-0.069427	0.019226	0.00824	-0.28259	-0.003815	0.086212	-0.16037	0	-0.00946
58.796	0.009155	-0.039978	0.04776	0.009308	0.005493	0.028229	0.023041	0.00473	0.034637	0.03952	-0.039215	-0.020142	-0.018311	-0.020599	0.007782	0.009003	0.036469	-0.061798	-0.35202	0.027008	0.029602	-0.16907	-0.010376	-0.11704	0.018921	-0.001068	-0.075226	0.007324	0.22537	-0.15518	0.004883	-0.014191
58.797	-0.001678	-0.01297	0.039978	-0.007019	0.013885	0.005646	0.027771	0.008698	0.031433	0.018616	-0.027008	-0.010223	-0.006409	0.040283	0.02655	0.00824	0.070343	-0.066376	-0.096741	0.019836	-0.034485	-0.19852	0.004425	-0.1738	-0.000763	-0.004425	0.17868	-0.001678	0.39856	-0.096436	0.000153	-0.011292
